<svg xmlns="http://www.w3.org/2000/svg" viewBox="158 205 254.346 129.222">
  <defs>
    <style>
      .cls-1 {
        fill: #ed1c24;
        fill-rule: evenodd;
      }
    </style>
  </defs>
  <g id="logo-login" transform="translate(158 204.934)">
    <path id="Path_1" data-name="Path 1" class="cls-1" d="M12.65,139.349V97.9H0v41.449Z" transform="translate(0 -10.061)"/>
    <path id="Path_2" data-name="Path 2" class="cls-1" d="M127.816,139.349c11.484,0,14.624-5.293,14.624-12.112V97.9h-12.65v25.121c0,3.678-.9,6.639-7.536,6.639h-7.088c-6.729,0-7.536-2.961-7.536-6.639V97.9H94.8v29.337c0,6.818,3.14,12.112,14.624,12.112Z" transform="translate(-9.749 -10.061)"/>
    <path id="Path_3" data-name="Path 3" class="cls-1" d="M263.426,139.349c11.484,0,14.624-5.293,14.624-12.112V97.9H265.4v25.121c0,3.678-.9,6.639-7.536,6.639h-7.177c-6.729,0-7.536-2.961-7.536-6.639V97.9H230.5v29.337c0,6.818,3.14,12.112,14.624,12.112Z" transform="translate(-23.704 -10.061)"/>
    <path id="Path_4" data-name="Path 4" class="cls-1" d="M27.5,129.66v9.689H68.77a9.6,9.6,0,0,0,9.869-7.716c.538-2.6-.179-8.433-4.755-10.228L42.931,109.832c-1.346-.628-.628-2.243.987-2.243H74.6V97.9H42.931c-6.729,0-12.291,2.422-13.727,6.908-1.256,4.037-1.166,10.5,5.024,12.56L62.041,127.6c1.794.718,1.346,2.063-.179,2.063Z" transform="translate(-2.828 -10.061)"/>
    <path id="Path_5" data-name="Path 5" class="cls-1" d="M209.67,129.66v9.689H170.2c-6.908,0-8.074-3.858-8.613-6.46s.179-8.433,4.755-10.228L194.6,108.217c.628-.269.628-.628,0-.628H162.569V97.9H194.6c6.729,0,12.291.269,14.265,4.665a8.456,8.456,0,0,1-5.293,11.843l-26.556,13.547c-1.256.538-1.435,1.794.09,1.794H209.67Z" transform="translate(-16.601 -10.061)"/>
    <path id="Path_6" data-name="Path 6" class="cls-1" d="M256.942,8.889c-14.355-16.328-42.795-7.357-58.136,5.652-18.661,17.4-21.711,37.771-12.022,48.626,8.254,7.716,19.917,7.357,29.965,6.28A57.839,57.839,0,0,0,241.78,58.053a60.283,60.283,0,0,0,17.046-21.8c6.639-13.906-.449-25.838-1.884-27.363ZM240.793,55.9c-4.037,3.678-30.145,19.917-47.37,3.14-14.265-13.906-1.615-35.617,6.19-42.167,1.435-.718,9.51-10.048,24.493-11.932,11.125-1.435,20.545,1.615,26.2,7.9a22.7,22.7,0,0,1,5.473,12.471c1.7,14.444-10.945,26.915-14.983,30.593Z" transform="translate(-18.655 0)"/>
    <path id="Path_7" data-name="Path 7" class="cls-1" d="M207.7,19.6V55.217h14.893V37.9c0-2.333-.449-4.306-3.14-6.818L207.7,19.6Z" transform="translate(-21.359 -2.009)"/>
    <path id="Path_8" data-name="Path 8" class="cls-1" d="M243.493,19.6V55.217H228.6V37.9c0-2.333.449-4.306,3.14-6.818L243.493,19.6Z" transform="translate(-23.508 -2.009)"/>
  </g>
</svg>
